<?xml version="1.0" encoding="utf-8"?>
<!-- Generator: Adobe Illustrator 28.0.0, SVG Export Plug-In . SVG Version: 6.00 Build 0)  -->
<svg version="1.1" id="Layer_1" xmlns="http://www.w3.org/2000/svg" xmlns:xlink="http://www.w3.org/1999/xlink" x="0px" y="0px"
	 viewBox="0 0 22 22" style="enable-background:new 0 0 22 22;" xml:space="preserve">
<style type="text/css">
	.st0{fill:#545454;}
</style>
<path class="st0" d="M16.5,21.8c-1.1,0-2.3-0.3-3.6-0.8c-1.2-0.5-2.4-1.2-3.6-2.1C8.1,18,7,17.1,5.9,16s-2-2.2-2.9-3.4S1.5,10.2,1,9
	C0.5,7.9,0.2,6.7,0.2,5.5c0-0.8,0.1-1.5,0.4-2.2S1.4,2,2,1.4c0.8-0.8,1.7-1.1,2.6-1.1c0.4,0,0.8,0.1,1.1,0.2c0.4,0.2,0.7,0.4,1,0.8
	L9,4.6c0.2,0.3,0.4,0.6,0.5,0.8C9.6,5.7,9.7,6,9.7,6.3c0,0.4-0.1,0.8-0.3,1.1S9,8,8.7,8.3L8,9c0,0,0,0,0,0.1
	c0.1,0.2,0.4,0.6,0.8,1.1c0.5,0.6,1,1.1,1.4,1.5c0.6,0.6,1.1,1,1.5,1.4c0.6,0.5,0.9,0.7,1.2,0.8l0,0l0.7-0.7
	c0.3-0.3,0.6-0.5,0.9-0.7c0.6-0.3,1.2-0.4,2-0.1c0.3,0.1,0.5,0.3,0.8,0.5l3.3,2.4c0.4,0.2,0.6,0.6,0.8,0.9c0.1,0.4,0.2,0.7,0.2,1.1
	c0,0.5-0.1,1-0.3,1.4c-0.2,0.5-0.5,0.8-0.8,1.2c-0.6,0.6-1.2,1.1-1.9,1.4C18,21.6,17.2,21.8,16.5,21.8z M4.6,1.8C4,1.8,3.5,2,3,2.5
	C2.5,2.9,2.2,3.4,2,3.9c-0.1,0.5-0.2,1-0.2,1.6c0,0.9,0.2,1.9,0.7,3c0.4,1.1,1.1,2.2,1.9,3.3S6,13.9,7,15c1,1,2.1,1.9,3.2,2.7
	c1.1,0.8,2.2,1.4,3.3,1.9c1.7,0.7,3.3,0.9,4.6,0.4c0.5-0.2,1-0.5,1.4-1c0.2-0.2,0.4-0.5,0.6-0.8c0.1-0.2,0.2-0.5,0.2-0.8
	c0-0.2,0-0.3-0.1-0.5c0-0.1-0.1-0.2-0.3-0.3l-3.3-2.4c-0.2-0.1-0.4-0.2-0.6-0.3c-0.2-0.1-0.3-0.2-0.6,0c-0.2,0.1-0.4,0.2-0.6,0.4
	L14,15.1c-0.4,0.4-1,0.5-1.4,0.3l-0.3-0.1c-0.4-0.2-0.9-0.6-1.4-1s-1-0.9-1.6-1.5c-0.5-0.5-1-1-1.5-1.6s-0.8-1-1-1.4L6.6,9.4
	C6.5,9.2,6.5,9.1,6.5,8.9c0-0.4,0.1-0.7,0.4-0.9l0.8-0.8C7.8,7,8,6.8,8.1,6.6c0.1-0.1,0.1-0.2,0.1-0.3c0-0.1,0-0.2-0.1-0.3
	C8,5.8,7.9,5.6,7.8,5.4L5.5,2.2C5.4,2,5.2,1.9,5.1,1.9C4.9,1.8,4.8,1.8,4.6,1.8z"/>
</svg>
